<svg xmlns="http://www.w3.org/2000/svg" viewBox="0 0 1340 512" width="1340" height="512" role="img" aria-label="PDF-Fusion">
  <defs>
    <linearGradient id="fondo" x1="0" y1="0" x2="1" y2="1">
      <stop offset="0" stop-color="#FF5A5F"/>
      <stop offset="1" stop-color="#B3121B"/>
    </linearGradient>
    <linearGradient id="pagina" x1="0" y1="0" x2="0" y2="1">
      <stop offset="0" stop-color="#FFFFFF"/>
      <stop offset="1" stop-color="#FFE4E6"/>
    </linearGradient>
    <filter id="sombra" x="-20%" y="-20%" width="150%" height="150%">
      <feDropShadow dx="0" dy="8" stdDeviation="8" flood-color="#000000" flood-opacity="0.28"/>
    </filter>
  </defs>
  <g>
  <rect width="512" height="512" rx="112" fill="url(#fondo)"/>
  <g>
    <path d="M140 150 C210 150 200 256 276 256" fill="none" stroke="#FFFFFF" stroke-opacity="0.85" stroke-width="6" stroke-linecap="round" stroke-dasharray="2 14"/>
    <path d="M140 256 L276 256" fill="none" stroke="#FFFFFF" stroke-opacity="0.85" stroke-width="6" stroke-linecap="round" stroke-dasharray="2 14"/>
    <path d="M140 362 C210 362 200 256 276 256" fill="none" stroke="#FFFFFF" stroke-opacity="0.85" stroke-width="6" stroke-linecap="round" stroke-dasharray="2 14"/>
  </g>
    <g transform="translate(54 100)" filter="url(#sombra)">
      <rect width="84" height="100" rx="12" fill="#FFFFFF"/>
      <rect x="16" y="20" width="52" height="8" rx="4" fill="#FCA5A5"/>
      <rect x="16" y="40" width="52" height="8" rx="4" fill="#FECACA"/>
      <rect x="16" y="60" width="34" height="8" rx="4" fill="#FECACA"/>
    </g>
    <g transform="translate(54 206)" filter="url(#sombra)">
      <rect width="84" height="100" rx="12" fill="#FFFFFF"/>
      <circle cx="58" cy="30" r="9" fill="#FBBF24"/>
      <path d="M10 82 L34 48 L52 70 L62 58 L74 82 Z" fill="#F87171"/>
    </g>
    <g transform="translate(54 312)" filter="url(#sombra)">
      <rect width="84" height="100" rx="12" fill="#FFFFFF"/>
      <rect x="14" y="18" width="56" height="8" rx="4" fill="#FECACA"/>
      <rect x="14" y="56" width="56" height="26" rx="6" fill="#B3121B"/>
      <text x="42" y="75" font-family="Arial, Helvetica, sans-serif" font-size="16"
            font-weight="800" fill="#FFFFFF" text-anchor="middle">PDF</text>
    </g>
  <g filter="url(#sombra)">
    <path d="M268 120 H410 L458 168 V392 H268 Z" fill="url(#pagina)"
          stroke="#FFFFFF" stroke-width="8" stroke-linejoin="round"/>
    <path d="M410 120 V168 H458 Z" fill="#FCA5A5"/>
    <rect x="290" y="184" width="100" height="10" rx="5" fill="#FCA5A5"/>
    <rect x="290" y="210" width="130" height="10" rx="5" fill="#FECACA"/>
    <rect x="290" y="236" width="110" height="10" rx="5" fill="#FECACA"/>
    <rect x="290" y="300" width="130" height="58" rx="12" fill="#B3121B"/>
    <text x="355" y="341" font-family="Arial, Helvetica, sans-serif" font-size="34"
          font-weight="800" fill="#FFFFFF" text-anchor="middle">PDF</text>
  </g>
  <circle cx="268" cy="256" r="11" fill="#FFFFFF" stroke="#B3121B" stroke-width="5"/>
  </g>
  <text x="556" y="292" font-family="Arial, Helvetica, sans-serif" font-size="124"
        font-weight="800" fill="#0F172A" letter-spacing="-3">PDF<tspan fill="#B3121B">-Fusion</tspan></text>
  <text x="562" y="356" font-family="Arial, Helvetica, sans-serif" font-size="40"
        font-weight="500" fill="#64748B" letter-spacing="2">Todos tus archivos. Un solo PDF.</text>
</svg>
